<svg width="20" height="20" viewBox="0 0 20 20" fill="none" xmlns="http://www.w3.org/2000/svg">
<path d="M7.4803 16.6671C8.69597 16.6751 9.90106 16.4328 11.0257 15.9543C12.1503 15.4758 13.172 14.7707 14.0317 13.8799C14.8913 12.9891 15.5717 11.9302 16.0334 10.7647C16.4951 9.5993 16.7289 8.35044 16.7212 7.09062V6.65058C17.3514 6.17212 17.8968 5.58417 18.3333 4.91279C17.74 5.18173 17.1121 5.3601 16.4693 5.44233C17.1508 5.02152 17.6621 4.35913 17.9087 3.57775C17.2736 3.97262 16.5771 4.25022 15.8504 4.39816C15.3609 3.85771 14.7133 3.49948 14.0076 3.3789C13.3019 3.25832 12.5775 3.38212 11.9466 3.73113C11.3156 4.08015 10.8132 4.63493 10.5171 5.30963C10.2211 5.98433 10.1478 6.74135 10.3087 7.46354C9.01759 7.39787 7.7543 7.05111 6.60109 6.44586C5.44788 5.8406 4.43061 4.99042 3.61553 3.95066C3.20453 4.68992 3.07995 5.5634 3.26702 6.39426C3.4541 7.22511 3.93884 7.95126 4.62311 8.42567C4.11832 8.40549 3.62521 8.26241 3.18371 8.008V8.04529C3.17923 8.81785 3.43037 9.56867 3.89528 10.1726C4.36019 10.7765 5.01079 11.1971 5.73864 11.3643C5.26913 11.4951 4.77733 11.5155 4.29924 11.4239C4.50996 12.0828 4.9122 12.658 5.45079 13.0706C5.98939 13.4832 6.63796 13.713 7.30758 13.7285C6.16269 14.6836 4.73976 15.2093 3.27008 15.2202C3.01239 15.2125 2.75531 15.1901 2.5 15.1531C3.98758 16.1353 5.71647 16.6531 7.4803 16.6448" fill="black"/>
</svg>
