<svg width="20" height="20" viewBox="0 0 20 20" fill="none" xmlns="http://www.w3.org/2000/svg">
<path d="M10.206 6.46191C9.21323 6.46191 8.26117 6.85627 7.55921 7.55823C6.85725 8.26019 6.46289 9.21225 6.46289 10.205C6.46289 11.1977 6.85725 12.1498 7.55921 12.8517C8.26117 13.5537 9.21323 13.948 10.206 13.948C11.1987 13.948 12.1507 13.5537 12.8527 12.8517C13.5547 12.1498 13.949 11.1977 13.949 10.205C13.949 9.21225 13.5547 8.26019 12.8527 7.55823C12.1507 6.85627 11.1987 6.46191 10.206 6.46191V6.46191ZM10.206 12.6359C9.56103 12.6359 8.94252 12.3797 8.48648 11.9236C8.03045 11.4676 7.77426 10.8491 7.77426 10.2042C7.77426 9.55924 8.03045 8.94073 8.48648 8.4847C8.94252 8.02867 9.56103 7.77247 10.206 7.77247C10.8509 7.77247 11.4694 8.02867 11.9254 8.4847C12.3815 8.94073 12.6376 9.55924 12.6376 10.2042C12.6376 10.8491 12.3815 11.4676 11.9254 11.9236C11.4694 12.3797 10.8509 12.6359 10.206 12.6359V12.6359Z" fill="black"/>
<path d="M14.0972 7.19691C14.5792 7.19691 14.9699 6.80622 14.9699 6.32429C14.9699 5.84235 14.5792 5.45166 14.0972 5.45166C13.6153 5.45166 13.2246 5.84235 13.2246 6.32429C13.2246 6.80622 13.6153 7.19691 14.0972 7.19691Z" fill="black"/>
<path d="M17.1139 5.43711C16.9266 4.95319 16.6402 4.51372 16.2732 4.14684C15.9061 3.77996 15.4666 3.49376 14.9826 3.30655C14.4162 3.09394 13.8179 2.97898 13.213 2.96656C12.4335 2.93257 12.1866 2.92285 10.2098 2.92285C8.23308 2.92285 7.97971 2.92285 7.20665 2.96656C6.60228 2.97835 6.00437 3.09333 5.43873 3.30655C4.95461 3.49354 4.51492 3.77967 4.14787 4.14657C3.78083 4.51348 3.49453 4.95306 3.30736 5.43711C3.09471 6.00344 2.98001 6.60183 2.96818 7.20665C2.93337 7.98538 2.92285 8.23227 2.92285 10.2098C2.92285 12.1866 2.92285 12.4384 2.96818 13.213C2.98033 13.8185 3.09446 14.4159 3.30736 14.9834C3.49506 15.4673 3.78163 15.9067 4.14877 16.2735C4.5159 16.6404 4.95552 16.9266 5.43954 17.1139C6.00411 17.3351 6.60227 17.4583 7.20827 17.4782C7.9878 17.5122 8.2347 17.5227 10.2115 17.5227C12.1882 17.5227 12.4416 17.5227 13.2147 17.4782C13.8194 17.4659 14.4177 17.3512 14.9842 17.139C15.4681 16.9514 15.9075 16.6649 16.2745 16.298C16.6415 15.931 16.9279 15.4915 17.1156 15.0077C17.3285 14.441 17.4426 13.8436 17.4547 13.2381C17.4896 12.4594 17.5001 12.2125 17.5001 10.2349C17.5001 8.25736 17.5001 8.00642 17.4547 7.23174C17.4453 6.61838 17.33 6.01124 17.1139 5.43711V5.43711ZM16.128 13.1531C16.1228 13.6196 16.0376 14.0818 15.8762 14.5195C15.7547 14.8343 15.5686 15.1202 15.3299 15.3587C15.0912 15.5973 14.8053 15.7832 14.4904 15.9046C14.0575 16.0652 13.6003 16.1504 13.1386 16.1563C12.3696 16.1919 12.1526 16.2008 10.1807 16.2008C8.20718 16.2008 8.00561 16.2008 7.22203 16.1563C6.76057 16.1507 6.30353 16.0655 5.871 15.9046C5.55505 15.7839 5.26793 15.5983 5.02824 15.3598C4.78854 15.1212 4.60159 14.8349 4.47949 14.5195C4.32039 14.0865 4.23528 13.6298 4.22774 13.1685C4.19293 12.3995 4.18484 12.1826 4.18484 10.2107C4.18484 8.23794 4.18484 8.03637 4.22774 7.25198C4.23298 6.78574 4.31813 6.32384 4.47949 5.88638C4.72639 5.24769 5.23231 4.745 5.871 4.50054C6.30374 4.34037 6.76064 4.25524 7.22203 4.24879C7.99185 4.21398 8.20799 4.20427 10.1807 4.20427C12.1534 4.20427 12.3558 4.20427 13.1386 4.24879C13.6003 4.25434 14.0576 4.33951 14.4904 4.50054C14.8052 4.62218 15.0912 4.80831 15.3298 5.04697C15.5685 5.28563 15.7546 5.57155 15.8762 5.88638C16.0354 6.31941 16.1205 6.77613 16.128 7.23741C16.1628 8.00723 16.1717 8.22336 16.1717 10.1961C16.1717 12.168 16.1717 12.3801 16.1369 13.1539H16.128V13.1531Z" fill="black"/>
</svg>
